<?xml version="1.0" encoding="utf-8"?>
<svg xmlns="http://www.w3.org/2000/svg" version="1.1" viewBox="0 0 5000 5000"><style>path{fill:#fff}</style><path d="M1758 1684c-176 0-266 101-267 302l-1 302h2405v592l4 205c0 399-234 600-702 600H1092l-4-396h2142c176 0 265-102 265-304v-300H1092v-592l-4-204c0-399 234-600 702-600h2105l4 396H1757l1-1z"/><path d="M2650 0c1262 77 2272 1085 2345 2344h-434c-69-1023-887-1841-1911-1917V0v1zM2339 4994C1084 4914 82 3914 2 2663h434c81 1009 889 1815 1902 1892v439h1zM-5 2345C65 1084 1073 74 2334-5v427C1310 500 495 1322 428 2345H-5zM4993 2657c-80 1255-1088 2257-2348 2332v-439c1018-73 1833-879 1914-1893h434z"/></svg>
