<?xml version="1.0" encoding="UTF-8"?>
<!DOCTYPE svg PUBLIC "-//W3C//DTD SVG 1.1//EN" "http://www.w3.org/Graphics/SVG/1.1/DTD/svg11.dtd">
<!-- Creator: CorelDRAW X6 -->
<svg xmlns="http://www.w3.org/2000/svg" xml:space="preserve" width="244.336mm" height="50mm" version="1.1" style="shape-rendering:geometricPrecision; text-rendering:geometricPrecision; image-rendering:optimizeQuality; fill-rule:evenodd; clip-rule:evenodd"
viewBox="0 0 24434 5000"
 xmlns:xlink="http://www.w3.org/1999/xlink">
 <defs>
  <style type="text/css">
   <![CDATA[
    .fil1 {fill:#212121}
    .fil0 {fill:#212121;fill-rule:nonzero}
   ]]>
  </style>
 </defs>
 <g id="Réteg_x0020_1">
  <metadata id="CorelCorpID_0Corel-Layer"/>
  <g id="_765525152">
   <polygon class="fil0" points="7475,1582 7162,1582 7165,2364 5290,2364 5290,2676 7162,2676 7162,3454 7475,3454 "/>
   <path class="fil0" d="M8168 3142c0,0 -153,312 -153,312l-313 0 781 -1559c54,-107 98,-180 132,-217 49,-56 108,-95 181,-95 74,0 133,39 181,94 32,36 77,109 132,219l781 1559 -320 0c0,0 -152,-312 -152,-312l-543 -1091c-30,-60 -56,-89 -77,-89 -21,0 -47,30 -77,89l-549 1083 -4 8 -1 -1z"/>
   <path class="fil0" d="M10495 1884l159 0 620 2c522,-1 783,206 783,623 0,417 -260,625 -781,625l-1094 0 0 312 1092 2c728,1 1093,-311 1093,-936 0,-625 -361,-938 -1084,-941l-1100 0 0 234 0 79 312 0 0 0z"/>
   <path class="fil0" d="M14694 2672l-2184 0 0 -312 2184 0 0 312zm3 -781l-2187 0 0 -312 2187 0 0 312zm-3 1250l0 312 -2184 0 0 -312 2184 0z"/>
   <path class="fil1" d="M15459 1893c-137,0 -207,79 -208,236l-1 234 1872 0 0 2 2 0 0 463 3 159c0,312 -182,469 -547,469l-547 0 -1094 0 -3 -309 1456 0 212 0c137,0 206,-80 206,-238l0 -232 -1872 0 0 -313 0 0 0 -151 -3 -159c0,-312 182,-469 547,-469l546 0 1094 0 3 309 -1456 0 -212 0 2 -1z"/>
   <path class="fil0" d="M18492 1579c733,0 1100,312 1100,937 0,625 -364,938 -1093,939 -728,1 -1092,-311 -1092,-936 0,-625 361,-938 1084,-941l0 1zm787 937c0,-417 -260,-624 -780,-623 -522,-1 -782,206 -782,623 0,417 260,625 781,625 521,0 781,-208 781,-625zm-231 156l0 -313 -1064 0 -5 313 1069 0z"/>
   <path class="fil0" d="M22037 1901l-2187 0 0 -312 2187 0 0 312zm-3 781l-1871 0 0 389 0 389 -312 0 0 -779 0 -312 2184 0 0 312 -1 1z"/>
   <polygon class="fil0" points="22257,1588 24444,1588 24444,1900 23506,1900 23506,3459 23196,3459 23196,1900 22257,1900 "/>
   <path class="fil1" d="M1767 1698c-176,0 -265,101 -266,302l-1 302 1998 0 0 0 399 0 0 592 4 205c0,399 -233,600 -700,600l-700 0 -1399 0 -4 -396 1863 0 272 0c176,0 264,-102 264,-304l0 -300 -2000 0 0 0 -396 0 0 -592 -4 -204c0,-399 233,-600 700,-600l699 0 1400 0 4 396 -1863 0 -272 0 1 -1z"/>
   <path class="fil1" d="M2657 14c1258,77 2265,1085 2338,2344l-433 0c-69,-1023 -884,-1841 -1905,-1917l0 -427 0 1z"/>
   <path class="fil1" d="M2347 5008c-1251,-80 -2250,-1080 -2330,-2331l433 0c81,1009 886,1815 1896,1892l0 439 1 0z"/>
   <path class="fil1" d="M10 2359c70,-1261 1074,-2271 2332,-2350l0 427c-1021,78 -1834,900 -1900,1923l-432 0z"/>
   <path class="fil1" d="M4993 2671c-80,1255 -1085,2257 -2341,2332l0 -439c1015,-73 1827,-879 1908,-1893l433 0z"/>
  </g>
 </g>
</svg>
